<svg width="36" height="36" viewBox="0 0 36 36" fill="none" xmlns="http://www.w3.org/2000/svg">
<circle cx="18" cy="18" r="18" fill="#3478F6"/>
<path d="M10.6442 24.6282H11.4651C11.9899 24.6282 12.3936 24.2245 12.3936 23.7065V22.5021C13.894 22.603 16.1412 22.677 17.9713 22.677C19.7947 22.677 22.0419 22.6098 23.5491 22.5088V23.7065C23.5491 24.2245 23.9528 24.6282 24.4708 24.6282H25.2984C25.8165 24.6282 26.2202 24.2245 26.2202 23.7065V19.6224C26.2202 18.3979 26.0116 17.7183 25.3792 16.8974L24.7602 16.1304C24.5112 14.9193 24.0604 13.6477 23.8249 13.1498C23.4414 12.3289 22.6946 11.8378 21.7324 11.7032C21.2211 11.6359 19.8014 11.5956 17.9713 11.5956C16.1412 11.5956 14.7216 11.6427 14.2102 11.7032C13.2481 11.8243 12.4945 12.3289 12.111 13.1498C11.8755 13.6477 11.4314 14.9193 11.1825 16.1304L10.5635 16.8974C9.92429 17.7183 9.71571 18.3979 9.71571 19.6224V23.7065C9.71571 24.2245 10.1194 24.6282 10.6442 24.6282ZM12.8107 15.4643C12.952 14.8453 13.2279 14.0245 13.4095 13.6881C13.6181 13.2978 13.8671 13.1431 14.3246 13.0825C14.7754 13.0152 15.9326 12.9816 17.9713 12.9816C20.0033 12.9816 21.1605 13.0085 21.618 13.0825C22.0756 13.1498 22.3178 13.2978 22.5264 13.6881C22.7148 14.0177 22.9839 14.8453 23.1252 15.4643C23.2059 15.7873 23.0646 15.9488 22.7215 15.9353C21.7593 15.8882 20.4675 15.8209 17.9713 15.8209C15.4751 15.8209 14.1833 15.8882 13.2144 15.9353C12.8713 15.9488 12.7367 15.7873 12.8107 15.4643ZM12.9386 20.7999C12.2657 20.7999 11.7544 20.2885 11.7544 19.6089C11.7544 18.9361 12.2657 18.4248 12.9386 18.4248C13.6114 18.4248 14.1227 18.9361 14.1227 19.6089C14.1227 20.2885 13.6114 20.7999 12.9386 20.7999ZM22.9973 20.7999C22.3245 20.7999 21.8132 20.2885 21.8132 19.6089C21.8132 18.9361 22.3245 18.4248 22.9973 18.4248C23.6769 18.4248 24.1883 18.9361 24.1883 19.6089C24.1883 20.2885 23.6769 20.7999 22.9973 20.7999ZM16.121 20.4702C15.6164 20.4702 15.2598 20.1136 15.2598 19.6089C15.2598 19.1043 15.6164 18.7477 16.121 18.7477H19.8216C20.3262 18.7477 20.6828 19.1043 20.6828 19.6089C20.6828 20.1136 20.3262 20.4702 19.8216 20.4702H16.121Z" fill="white"/>
</svg>
